<svg xmlns="http://www.w3.org/2000/svg" viewBox="0 0 600 210" width="600" height="210">
  <!-- Forge text -->
  <text x="2" y="158" font-family="Impact,Arial,sans-serif" font-size="158" fill="#c8c4be">Forge</text>
  <!-- INTELL text -->
  <text x="6" y="202" font-family="Impact,Arial,sans-serif" font-size="56" fill="#e8520a" letter-spacing="5">INTELL</text>
  <!-- AI text - placed so gears sit on top -->
  <text x="452" y="168" font-family="Impact,Arial,sans-serif" font-size="148" fill="#e8520a">AI</text>
  <!-- Big gear orange - drawn on top of everything -->
  <g transform="translate(402,112)">
    <path d="M -6.43,-43.53 L -6.67,-57.62 L 6.67,-57.62 L 6.43,-43.53 L 16.20,-40.91 L 23.03,-53.23 L 34.58,-46.56 L 27.33,-34.48 L 34.48,-27.33 L 46.56,-34.58 L 53.23,-23.03 L 40.91,-16.20 L 43.53,-6.43 L 57.62,-6.67 L 57.62,6.67 L 43.53,6.43 L 40.91,16.20 L 53.23,23.03 L 46.56,34.58 L 34.48,27.33 L 27.33,34.48 L 34.58,46.56 L 23.03,53.23 L 16.20,40.91 L 6.43,43.53 L 6.67,57.62 L -6.67,57.62 L -6.43,43.53 L -16.20,40.91 L -23.03,53.23 L -34.58,46.56 L -27.33,34.48 L -34.48,27.33 L -46.56,34.58 L -53.23,23.03 L -40.91,16.20 L -43.53,6.43 L -57.62,6.67 L -57.62,-6.67 L -43.53,-6.43 L -40.91,-16.20 L -53.23,-23.03 L -46.56,-34.58 L -34.48,-27.33 L -27.33,-34.48 L -34.58,-46.56 L -23.03,-53.23 L -16.20,-40.91 Z" fill="#e8520a"/>
    <circle r="18" fill="#c8c4be"/>
    <circle r="12" fill="#e8520a"/>
    <circle r="7" fill="#c8c4be"/>
  </g>
  <!-- Small gear grey -->
  <g transform="translate(451,156)">
    <path d="M 21.27,-14.95 L 28.71,-18.22 L 33.18,-7.42 L 25.61,-4.47 L 25.61,4.47 L 33.18,7.42 L 28.71,18.22 L 21.27,14.95 L 14.95,21.27 L 18.22,28.71 L 7.42,33.18 L 4.47,25.61 L -4.47,25.61 L -7.42,33.18 L -18.22,28.71 L -14.95,21.27 L -21.27,14.95 L -28.71,18.22 L -33.18,7.42 L -25.61,4.47 L -25.61,-4.47 L -33.18,-7.42 L -28.71,-18.22 L -21.27,-14.95 L -14.95,-21.27 L -18.22,-28.71 L -7.42,-33.18 L -4.47,-25.61 L 4.47,-25.61 L 7.42,-33.18 L 18.22,-28.71 L 14.95,-21.27 Z" fill="#c8c4be"/>
    <circle r="11" fill="#e8520a"/>
    <circle r="7" fill="#c8c4be"/>
    <circle r="4" fill="#e8520a"/>
  </g>
</svg>